<svg xmlns="http://www.w3.org/2000/svg" xmlns:xlink="http://www.w3.org/1999/xlink" width="500" zoomAndPan="magnify" viewBox="0 0 375 374.999991" height="500" preserveAspectRatio="xMidYMid meet" version="1.0"><defs><g/><clipPath id="90186bfa3b"><path d="M 225.269531 205.558594 L 244.277344 205.558594 L 244.277344 224.566406 L 225.269531 224.566406 Z M 225.269531 205.558594 " clip-rule="nonzero"/></clipPath><clipPath id="8ff406038b"><path d="M 234.773438 205.558594 C 229.527344 205.558594 225.269531 209.816406 225.269531 215.0625 C 225.269531 220.3125 229.527344 224.566406 234.773438 224.566406 C 240.023438 224.566406 244.277344 220.3125 244.277344 215.0625 C 244.277344 209.816406 240.023438 205.558594 234.773438 205.558594 " clip-rule="nonzero"/></clipPath></defs><g fill="#ffffff" fill-opacity="1"><g transform="translate(-0.0233861, 223.259591)"><g><path d="M 40.871094 1.195312 C 57.421875 1.195312 66.445312 -13.324219 66.445312 -29.875 C 66.445312 -46.488281 57.421875 -60.949219 40.632812 -60.949219 C 34.238281 -60.949219 28.023438 -58.855469 23.839844 -53.71875 L 23.839844 -84.429688 L 8.785156 -84.429688 L 8.785156 0 L 23.839844 0 L 23.839844 -5.976562 C 28.023438 -0.835938 34.65625 1.195312 40.871094 1.195312 Z M 37.226562 -12.25 C 27.1875 -12.25 22.527344 -19.835938 22.527344 -29.875 C 22.527344 -39.914062 27.1875 -47.742188 37.226562 -47.742188 C 47.265625 -47.742188 51.746094 -39.796875 51.746094 -29.875 C 51.746094 -19.957031 47.265625 -12.25 37.226562 -12.25 Z M 37.226562 -12.25 "/></g></g></g><g fill="#ffffff" fill-opacity="1"><g transform="translate(65.952827, 223.259591)"><g><path d="M 12.011719 25.695312 L 27.902344 25.695312 L 62.023438 -59.691406 L 46.007812 -59.691406 L 30.710938 -18.222656 L 15.65625 -59.691406 L -0.359375 -59.691406 L 23.003906 -1.613281 Z M 12.011719 25.695312 "/></g></g></g><g fill="#ffffff" fill-opacity="1"><g transform="translate(123.325845, 223.259591)"><g><path d="M 29.875 1.195312 C 34 1.195312 38.421875 0.238281 40.632812 -0.597656 L 40.632812 -13.804688 C 38.660156 -12.847656 35.375 -11.652344 32.324219 -11.652344 C 28.5 -11.652344 25.574219 -13.324219 25.574219 -19.0625 L 25.574219 -47.503906 L 40.632812 -47.503906 L 40.632812 -59.691406 L 25.574219 -59.691406 L 25.574219 -84.90625 L 11.351562 -74.511719 L 11.351562 -59.691406 L 1.492188 -59.691406 L 1.492188 -47.503906 L 11.113281 -47.503906 L 11.113281 -16.492188 C 11.113281 -5.617188 18.105469 1.195312 29.875 1.195312 Z M 29.875 1.195312 "/></g></g></g><g fill="#ffffff" fill-opacity="1"><g transform="translate(164.089912, 223.259591)"><g><path d="M 33.519531 1.195312 C 43.558594 1.195312 51.507812 -2.332031 58.019531 -9.558594 L 47.980469 -18.34375 C 43.796875 -13.683594 39.019531 -12.011719 33.640625 -12.011719 C 24.257812 -12.011719 19.957031 -17.269531 18.703125 -25.097656 L 59.691406 -25.097656 C 59.992188 -25.933594 60.230469 -28.382812 60.230469 -30.832031 C 60.230469 -44.15625 53.476562 -60.949219 32.566406 -60.949219 C 12.367188 -60.949219 3.285156 -45.171875 3.285156 -29.636719 C 3.285156 -13.5625 12.964844 1.195312 33.519531 1.195312 Z M 18.703125 -35.613281 C 20.078125 -43.082031 23.839844 -48.699219 32.445312 -48.699219 C 40.035156 -48.699219 44.933594 -44.15625 45.890625 -35.613281 Z M 18.703125 -35.613281 "/></g></g></g><g clip-path="url(#90186bfa3b)"><g clip-path="url(#8ff406038b)"><path fill="#dcdf00" d="M 225.269531 205.558594 L 244.277344 205.558594 L 244.277344 224.566406 L 225.269531 224.566406 Z M 225.269531 205.558594 " fill-opacity="1" fill-rule="nonzero"/></g></g><g fill="#ffffff" fill-opacity="1"><g transform="translate(245.93392, 224.280772)"><g><path d="M 16.921875 0.625 C 23.117188 0.625 27.996094 -2.816406 30.058594 -8.632812 L 23.117188 -11.261719 C 22.304688 -8.320312 19.925781 -6.289062 16.859375 -6.289062 C 11.542969 -6.289062 9.539062 -10.824219 9.539062 -15.578125 C 9.539062 -20.238281 11.605469 -24.992188 16.859375 -24.992188 C 19.988281 -24.992188 22.304688 -22.867188 23.117188 -19.863281 L 30.375 -22.679688 C 27.996094 -28.902344 23.054688 -31.90625 16.859375 -31.90625 C 6.664062 -31.90625 1.78125 -23.773438 1.78125 -15.578125 C 1.78125 -7.289062 6.726562 0.625 16.921875 0.625 Z M 16.921875 0.625 "/></g></g></g><g fill="#ffffff" fill-opacity="1"><g transform="translate(275.093075, 224.280772)"><g><path d="M 17.609375 0.625 C 27.277344 0.625 33.625 -6.851562 33.625 -15.703125 C 33.625 -24.523438 27.277344 -31.90625 17.609375 -31.90625 C 7.945312 -31.90625 1.59375 -24.523438 1.59375 -15.703125 C 1.59375 -6.851562 7.945312 0.625 17.609375 0.625 Z M 17.609375 -5.941406 C 11.855469 -5.941406 9.539062 -10.574219 9.539062 -15.703125 C 9.539062 -20.832031 11.855469 -25.304688 17.609375 -25.304688 C 23.398438 -25.304688 25.679688 -20.832031 25.679688 -15.703125 C 25.679688 -10.574219 23.398438 -5.941406 17.609375 -5.941406 Z M 17.609375 -5.941406 "/></g></g></g><g fill="#ffffff" fill-opacity="1"><g transform="translate(308.130494, 224.280772)"><g><path d="M 24.273438 -44.199219 L 24.273438 -28.121094 C 22.117188 -30.8125 18.644531 -31.90625 15.390625 -31.90625 C 6.726562 -31.90625 1.96875 -24.273438 1.96875 -15.640625 C 1.96875 -6.914062 6.726562 0.625 15.515625 0.625 C 18.988281 0.625 22.429688 -0.5625 24.585938 -3.503906 L 24.929688 0 L 32.03125 0 L 32.03125 -44.199219 Z M 17.359375 -6.289062 C 12.105469 -6.289062 9.726562 -10.386719 9.726562 -15.640625 C 9.726562 -20.832031 12.105469 -24.992188 17.359375 -24.992188 C 22.617188 -24.992188 24.929688 -20.894531 24.929688 -15.640625 C 24.929688 -10.324219 22.617188 -6.289062 17.359375 -6.289062 Z M 17.359375 -6.289062 "/></g></g></g><g fill="#ffffff" fill-opacity="1"><g transform="translate(342.512795, 224.280772)"><g><path d="M 17.546875 0.625 C 22.804688 0.625 26.964844 -1.21875 30.375 -5.003906 L 25.117188 -9.601562 C 22.929688 -7.164062 20.425781 -6.289062 17.609375 -6.289062 C 12.699219 -6.289062 10.449219 -9.039062 9.789062 -13.136719 L 31.25 -13.136719 C 31.40625 -13.574219 31.53125 -14.859375 31.53125 -16.140625 C 31.53125 -23.117188 27.996094 -31.90625 17.046875 -31.90625 C 6.476562 -31.90625 1.71875 -23.648438 1.71875 -15.515625 C 1.71875 -7.101562 6.789062 0.625 17.546875 0.625 Z M 9.789062 -18.644531 C 10.511719 -22.554688 12.480469 -25.492188 16.984375 -25.492188 C 20.957031 -25.492188 23.523438 -23.117188 24.023438 -18.644531 Z M 9.789062 -18.644531 "/></g></g></g></svg>